<?xml version="1.0" encoding="iso-8859-1"?>
<!-- Generator: Adobe Illustrator 19.0.0, SVG Export Plug-In . SVG Version: 6.00 Build 0)  -->
<svg xmlns="http://www.w3.org/2000/svg" xmlns:xlink="http://www.w3.org/1999/xlink" version="1.1" id="Layer_1" x="0px" y="0px" viewBox="0 0 512 512" style="enable-background:new 0 0 512 512;" xml:space="preserve" width="512px" height="512px">
<g>
	<g>
		<rect x="30.416" y="329.089" width="15.208" height="15.208" fill="#FFFFFF"/>
	</g>
</g>
<g>
	<g>
		<rect x="30.416" y="224.874" width="15.208" height="16.283" fill="#FFFFFF"/>
	</g>
</g>
<g>
	<g>
		<rect x="30.416" y="294.354" width="15.208" height="16.283" fill="#FFFFFF"/>
	</g>
</g>
<g>
	<g>
		<rect x="30.416" y="259.609" width="15.208" height="16.283" fill="#FFFFFF"/>
	</g>
</g>
<g>
	<g>
		<rect x="30.416" y="191.204" width="15.208" height="15.208" fill="#FFFFFF"/>
	</g>
</g>
<g>
	<g>
		<rect x="225.077" y="191.204" width="15.208" height="15.208" fill="#FFFFFF"/>
	</g>
</g>
<g>
	<g>
		<rect x="160.19" y="191.204" width="15.208" height="15.208" fill="#FFFFFF"/>
	</g>
</g>
<g>
	<g>
		<rect x="192.634" y="191.204" width="15.208" height="15.208" fill="#FFFFFF"/>
	</g>
</g>
<g>
	<g>
		<rect x="127.747" y="191.204" width="15.208" height="15.208" fill="#FFFFFF"/>
	</g>
</g>
<g>
	<g>
		<rect x="62.859" y="191.204" width="15.208" height="15.208" fill="#FFFFFF"/>
	</g>
</g>
<g>
	<g>
		<rect x="95.303" y="191.204" width="15.208" height="15.208" fill="#FFFFFF"/>
	</g>
</g>
<g>
	<g>
		<rect x="257.521" y="191.204" width="15.208" height="15.208" fill="#FFFFFF"/>
	</g>
</g>
<g>
	<g>
		<rect x="257.521" y="294.354" width="15.208" height="16.283" fill="#FFFFFF"/>
	</g>
</g>
<g>
	<g>
		<rect x="257.521" y="224.874" width="15.208" height="16.283" fill="#FFFFFF"/>
	</g>
</g>
<g>
	<g>
		<rect x="257.521" y="259.609" width="15.208" height="16.283" fill="#FFFFFF"/>
	</g>
</g>
<g>
	<g>
		<rect x="257.521" y="329.089" width="15.208" height="15.208" fill="#FFFFFF"/>
	</g>
</g>
<g>
	<g>
		<rect x="192.634" y="329.089" width="15.208" height="15.208" fill="#FFFFFF"/>
	</g>
</g>
<g>
	<g>
		<rect x="225.077" y="329.089" width="15.208" height="15.208" fill="#FFFFFF"/>
	</g>
</g>
<g>
	<g>
		<rect x="62.859" y="329.089" width="15.208" height="15.208" fill="#FFFFFF"/>
	</g>
</g>
<g>
	<g>
		<rect x="160.19" y="329.089" width="15.208" height="15.208" fill="#FFFFFF"/>
	</g>
</g>
<g>
	<g>
		<rect x="95.303" y="329.089" width="15.208" height="15.208" fill="#FFFFFF"/>
	</g>
</g>
<g>
	<g>
		<rect x="127.747" y="329.089" width="15.208" height="15.208" fill="#FFFFFF"/>
	</g>
</g>
<g>
	<g>
		<path d="M131.802,83.737v20.924H36.499C16.373,104.661,0,121.034,0,141.16v195.675c0,20.126,16.373,36.499,36.499,36.499h238.764    c5.499,0,10.628-1.607,14.952-4.367l155.854,59.295l58.172-152.904H512V83.737H131.802z M36.499,119.868h95.303v42.582H36.499    c-11.741,0-21.291-9.552-21.291-21.291S24.758,119.868,36.499,119.868z M287.937,251.025v9.122v15.208v66.713v3.383    c0,0.438-0.023,0.873-0.067,1.302c-0.026,0.261-0.075,0.514-0.118,0.768c-0.027,0.164-0.044,0.332-0.077,0.494    c-0.055,0.264-0.13,0.52-0.201,0.778c-0.042,0.15-0.073,0.303-0.12,0.451c-0.068,0.217-0.154,0.426-0.233,0.638    c-0.071,0.189-0.135,0.379-0.214,0.564c-0.067,0.155-0.147,0.303-0.219,0.454c-0.117,0.241-0.23,0.483-0.362,0.717    c-0.051,0.09-0.108,0.176-0.161,0.265c-0.176,0.295-0.358,0.587-0.559,0.869c-0.021,0.03-0.046,0.059-0.067,0.089    c-0.499,0.685-1.07,1.331-1.712,1.922l-0.331,0.304c-2.217,1.901-5.091,3.058-8.233,3.058H36.499    c-11.741,0.002-21.291-9.549-21.291-21.289V170.79c0.2,0.144,0.406,0.281,0.609,0.422c0.134,0.092,0.266,0.187,0.401,0.278    c0.438,0.294,0.882,0.58,1.333,0.856c0.081,0.05,0.164,0.095,0.245,0.144c0.378,0.226,0.76,0.447,1.147,0.66    c0.16,0.088,0.322,0.173,0.484,0.26c0.321,0.17,0.645,0.337,0.971,0.498c0.17,0.084,0.34,0.167,0.511,0.248    c0.359,0.17,0.723,0.334,1.088,0.493c0.132,0.057,0.262,0.118,0.394,0.173c0.492,0.207,0.99,0.404,1.492,0.589    c0.127,0.047,0.255,0.089,0.383,0.134c0.385,0.138,0.774,0.27,1.165,0.395c0.179,0.058,0.361,0.112,0.541,0.166    c0.357,0.107,0.716,0.21,1.078,0.306c0.178,0.048,0.357,0.096,0.536,0.142c0.437,0.11,0.877,0.211,1.319,0.305    c0.097,0.02,0.194,0.045,0.291,0.065c0.537,0.109,1.08,0.206,1.625,0.291c0.157,0.024,0.316,0.045,0.474,0.067    c0.399,0.058,0.8,0.109,1.202,0.153c0.191,0.021,0.382,0.04,0.575,0.058c0.394,0.036,0.79,0.066,1.187,0.09    c0.176,0.011,0.351,0.023,0.527,0.031c0.567,0.026,1.135,0.044,1.708,0.044h95.303h15.208h15.208h66.549h46.498    c6.989,0,12.673,5.685,12.673,12.673V251.025z M177.426,162.45V123.28h70.727c-8.782,11.485-14.756,24.871-17.421,39.171H177.426z     M275.262,162.447h-29.033c3.357-14.922,11.076-28.536,22.292-39.167H375.28c15.402,14.612,24.182,34.96,24.182,56.269    c0,21.301-8.78,41.649-24.183,56.269h-72.134v-28.541c0.782,0.431,1.593,0.844,2.446,1.231c3.177,1.446,6.516,2.457,10.014,3.034    l-0.912,9.399h5.201c1.065,0,1.931-0.343,2.601-1.027c0.669-0.684,1.049-1.453,1.141-2.303l0.547-5.703    c3.527-0.274,6.661-1.027,9.398-2.259c2.737-1.232,5.048-2.821,6.935-4.767c1.886-1.947,3.315-4.19,4.289-6.73    s1.46-5.254,1.46-8.143c0-1.917-0.243-3.628-0.73-5.133c-0.487-1.506-1.163-2.837-2.03-3.993c-0.867-1.156-1.887-2.16-3.057-3.012    c-1.171-0.851-2.433-1.604-3.787-2.259c-1.354-0.654-2.761-1.232-4.221-1.734c-1.46-0.502-2.92-0.965-4.38-1.391l1.597-16.196    c0.943,0.274,1.832,0.593,2.669,0.957c0.836,0.365,1.62,0.707,2.35,1.027c0.73,0.319,1.398,0.586,2.007,0.798    c0.608,0.214,1.156,0.319,1.642,0.319c0.73,0,1.361-0.174,1.894-0.525c0.531-0.35,1.056-0.905,1.575-1.666l3.467-5.064    c-1.642-1.55-3.65-3.003-6.022-4.357s-5.201-2.335-8.486-2.943l0.912-8.987h-5.202c-1.065,0-1.932,0.348-2.601,1.043    c-0.669,0.696-1.049,1.475-1.141,2.341l-0.502,5.147c-3.528,0-6.661,0.588-9.398,1.762c-2.737,1.175-5.042,2.68-6.911,4.511    c-1.871,1.831-3.293,3.891-4.266,6.18c-0.973,2.29-1.46,4.64-1.46,7.051c0,3.267,0.539,5.983,1.619,8.149    c1.08,2.168,2.487,3.953,4.221,5.357c1.734,1.405,3.679,2.517,5.84,3.342c2.159,0.824,4.334,1.542,6.524,2.152l-1.688,17.246    c-1.369-0.364-2.585-0.827-3.65-1.391c-1.066-0.563-2.046-1.118-2.942-1.666c-0.897-0.547-1.727-1.011-2.487-1.391    c-0.76-0.38-1.506-0.571-2.236-0.571c-0.7,0-1.362,0.175-1.985,0.525c-0.095,0.054-0.167,0.122-0.256,0.179v-5.491    C303.144,174.955,290.637,162.447,275.262,162.447z M395.644,123.281h70.732V235.82H395.64    c12.235-16.041,19.029-35.784,19.029-56.269C414.669,159.06,407.876,139.317,395.644,123.281z M319.711,169.751    c-1.855-0.759-3.354-1.695-4.494-2.806c-1.141-1.11-1.711-2.561-1.711-4.357c0-0.791,0.137-1.543,0.411-2.259    s0.707-1.362,1.3-1.94c0.593-0.577,1.369-1.073,2.327-1.482c0.958-0.411,2.136-0.723,3.535-0.936L319.711,169.751z     M325.323,200.41l1.46-15.057c1.825,0.701,3.292,1.567,4.402,2.601c1.11,1.035,1.666,2.418,1.666,4.152    C332.851,196.761,330.341,199.528,325.323,200.41z M374.953,298.7c-7.575,19.908-23.016,35.805-42.611,43.992l-29.198-11.108    v-56.228h76.787C379.498,283.31,377.832,291.135,374.953,298.7z M389.168,304.108c3.541-9.307,5.541-18.948,5.985-28.751h60.276    l-37.941,99.728l-66.114-25.152C368.513,339.291,381.883,323.254,389.168,304.108z M437.264,408.64l-136.501-51.932    c1.223-2.76,2.009-5.753,2.274-8.894l29.345,11.165h0.001l93.91,35.728L471.7,275.357h16.271L437.264,408.64z M496.792,260.149    h-19.306h-82.598h-91.743v-9.122h77.962h100.478V108.073H381.105H262.697H162.218v54.378H147.01v-57.79v-5.716h349.782V260.149z" fill="#FFFFFF"/>
	</g>
</g>
<g>
	<g>
		<rect x="38.02" y="134.427" width="77.053" height="15.208" fill="#FFFFFF"/>
	</g>
</g>
<g>
</g>
<g>
</g>
<g>
</g>
<g>
</g>
<g>
</g>
<g>
</g>
<g>
</g>
<g>
</g>
<g>
</g>
<g>
</g>
<g>
</g>
<g>
</g>
<g>
</g>
<g>
</g>
<g>
</g>
</svg>
