<?xml version="1.0" encoding="iso-8859-1"?>
<!-- Generator: Adobe Illustrator 19.0.0, SVG Export Plug-In . SVG Version: 6.00 Build 0)  -->
<svg xmlns="http://www.w3.org/2000/svg" xmlns:xlink="http://www.w3.org/1999/xlink" version="1.1" id="Layer_1" x="0px" y="0px" viewBox="0 0 512 512" style="enable-background:new 0 0 512 512;" xml:space="preserve" width="512px" height="512px">
<g>
	<g>
		<path d="M212.177,384.107v63.996H43.608V223.686h56.624v-15.585H43.608v-32.383h56.261v-15.585H28.023V512h199.739V384.107    H212.177z M212.177,496.415H43.608v-32.728h168.57V496.415z" fill="#d57324"/>
	</g>
</g>
<g>
	<g>
		<path d="M108.09,0v403.931l65.442-28.045h310.445V0H108.09z M468.392,360.301H170.334l-46.659,19.995V15.585h344.718V360.301z" fill="#d57324"/>
	</g>
</g>
<g>
	<g>
		<rect x="115.814" y="472.004" width="23.896" height="15.585" fill="#d57324"/>
	</g>
</g>
<g>
	<g>
		<rect x="180.23" y="472.004" width="15.585" height="15.585" fill="#d57324"/>
	</g>
</g>
<g>
	<g>
		<rect x="59.71" y="472.004" width="16.623" height="15.585" fill="#d57324"/>
	</g>
</g>
<g>
	<g>
		<path d="M356.084,96.081c-17.542,0-31.812,14.27-31.812,31.812c0,17.542,14.27,31.812,31.812,31.812    c17.542,0,31.812-14.27,31.812-31.812C387.896,110.351,373.626,96.081,356.084,96.081z M356.084,144.121    c-8.948,0-16.228-7.28-16.228-16.228c0-8.949,7.28-16.228,16.228-16.228c8.948,0,16.228,7.28,16.228,16.228    C372.312,136.841,365.032,144.121,356.084,144.121z" fill="#d57324"/>
	</g>
</g>
<g>
	<g>
		<path d="M140.117,32.026v279.806h311.833V32.026H140.117z M331.922,47.611h48.832v30.212c-7.444-3.683-15.817-5.763-24.669-5.763    c-8.65,0-16.847,1.978-24.162,5.504V47.611z M331.711,95.893h0.211v-0.165c6.734-5.071,15.102-8.082,24.162-8.082    c22.192,0,40.248,18.055,40.248,40.248c0,15.473-22.608,51.266-40.222,75.139c-4.538-6.181-11.033-15.309-17.49-25.364    c-19.825-30.87-22.785-44.437-22.785-49.775C315.836,114.856,322.071,103.253,331.711,95.893z M275.817,47.611h40.52v41.12    c-8.144,8.264-13.736,19.045-15.491,31.058h-25.029V47.611z M155.702,47.611h72.323v104.386h-72.323V47.611z M228.025,296.248    h-72.323v-80.873h72.323V296.248z M284.129,296.248v-80.873h12.016l60.783,80.873H284.129z M376.423,296.248l-72.495-96.458    h-35.383v96.458h-24.935V199.79h-87.907v-32.208h87.907V47.611h16.624v87.763h40.865c6.159,30.011,44.172,79.403,48.844,85.389    l6.142,7.868l6.142-7.868c1.949-2.498,9.704-12.554,18.527-25.603v31.275l48.975,69.814H376.423z M436.366,278.573l-40.027-57.06    v-51.333c8.68-15.384,15.578-31.121,15.578-42.287c0-14.981-5.942-28.591-15.578-38.63V47.61h40.027V278.573z" fill="#d57324"/>
	</g>
</g>
<g>
	<g>
		<rect x="139.71" y="328.626" width="103.897" height="15.585" fill="#d57324"/>
	</g>
</g>
<g>
	<g>
		<rect x="260.231" y="328.626" width="15.585" height="15.585" fill="#d57324"/>
	</g>
</g>
<g>
	<g>
		<rect x="292.439" y="328.626" width="15.585" height="15.585" fill="#d57324"/>
	</g>
</g>
<g>
	<g>
		<rect x="323.608" y="328.626" width="16.623" height="15.585" fill="#d57324"/>
	</g>
</g>
<g>
	<g>
		<rect x="59.71" y="240.314" width="40.52" height="15.585" fill="#d57324"/>
	</g>
</g>
<g>
	<g>
		<polygon points="124.128,400.311 124.128,424.207 91.92,424.207 91.92,391.999 100.231,391.999 100.231,376.414 76.335,376.414     76.335,439.792 139.712,439.792 139.712,400.311   " fill="#d57324"/>
	</g>
</g>
<g>
</g>
<g>
</g>
<g>
</g>
<g>
</g>
<g>
</g>
<g>
</g>
<g>
</g>
<g>
</g>
<g>
</g>
<g>
</g>
<g>
</g>
<g>
</g>
<g>
</g>
<g>
</g>
<g>
</g>
</svg>
