<?xml version="1.0" encoding="iso-8859-1"?>
<!-- Generator: Adobe Illustrator 19.0.0, SVG Export Plug-In . SVG Version: 6.00 Build 0)  -->
<svg xmlns="http://www.w3.org/2000/svg" xmlns:xlink="http://www.w3.org/1999/xlink" version="1.1" id="Layer_1" x="0px" y="0px" viewBox="0 0 511.999 511.999" style="enable-background:new 0 0 511.999 511.999;" xml:space="preserve" width="512px" height="512px">
<g>
	<g>
		<path d="M290.466,228.137c-5.488-2.656-11.375-4.647-17.659-5.975c-6.286-1.328-12.172-2.656-17.66-3.984    c-5.489-1.328-10.047-3.054-13.676-5.179c-3.63-2.125-5.445-5.489-5.445-10.092c0-4.603,1.816-7.701,5.445-9.295    c3.63-1.593,8.011-2.391,13.145-2.391c17.49,0,31.919,5.489,43.287,16.465v-30.54c-4.246-4.692-14.603-8.144-31.071-10.358v-30.54    c0-0.531-0.354-0.796-1.063-0.796h-23.105c-0.709,0-1.062,0.353-1.062,1.062v30.01c-5.488,2.036-11.021,5.023-16.598,8.963    c-5.576,3.939-9.56,8.254-11.951,12.946c-2.39,4.692-3.585,10.535-3.585,17.528c0,6.993,1.815,12.969,5.445,17.926    c6.429,8.781,16.918,14.801,31.47,18.059l17.793,3.984c5.451,1.22,10.001,2.765,13.649,4.633c3.647,1.868,5.472,4.661,5.472,8.379    c0,6.629-4.217,11.232-12.652,13.81c-3.476,1.062-8.819,1.593-16.03,1.593c-10.092,0-19.209-2.391-27.353-7.171    c-8.143-4.78-14.341-11.419-18.59-19.918v35.852c10.977,6.675,22.307,11.721,33.993,15.138l0.266,27.088    c0.005,0.531,0.271,0.796,0.797,0.796h23.105c0.709,0,1.062-0.353,1.062-1.062v-24.964c15.05-5.01,26.082-11.95,33.097-20.82    c5.732-7.247,8.598-14.382,8.598-21.405C309.587,244.22,303.214,234.305,290.466,228.137z" fill="#e48d25"/>
	</g>
</g>
<g>
	<g>
		<path d="M401.134,275.817l-39.25,51.255v-65.193h82.169L257.698,0.133L60.926,261.879h92.261v63.748l-36.125-49.81L0,428.681    h55.15v83.185h407.575v-83.185h49.274L401.134,275.817z M163.889,497.103H69.912v-83.185H29.9l86.84-113.4l82.243,113.4h-35.095    V497.103z M339.222,497.104H178.653v-68.422h49.275l-59.977-82.699v-98.867H90.494L257.374,25.131L415.42,247.116h-68.299v99.233    l-63.048,82.332h55.149V497.104z M447.962,413.918v83.185h-93.978v-83.185h-40.012l86.84-113.4l82.243,113.4H447.962z" fill="#e48d25"/>
	</g>
</g>
<g>
	<g>
		<polygon points="423.474,442.84 423.474,472.615 407.03,472.615 407.03,487.378 438.237,487.378 438.237,442.84   " fill="#e48d25"/>
	</g>
</g>
<g>
	<g>
		<rect x="377.109" y="472.614" width="14.189" height="14.763" fill="#e48d25"/>
	</g>
</g>
<g>
	<g>
		<rect x="490.142" y="254.008" width="14.763" height="15.674" fill="#e48d25"/>
	</g>
</g>
<g>
	<g>
		<rect x="460.43" y="99.422" width="14.763" height="15.674" fill="#e48d25"/>
	</g>
</g>
<g>
	<g>
		<rect x="475.458" y="21.362" width="14.763" height="15.674" fill="#e48d25"/>
	</g>
</g>
<g>
	<g>
		<rect x="422.352" y="155.304" width="14.763" height="15.674" fill="#e48d25"/>
	</g>
</g>
<g>
	<g>
		<rect x="372.601" y="63.342" width="14.763" height="15.674" fill="#e48d25"/>
	</g>
</g>
<g>
	<g>
		<rect x="7.531" y="254.008" width="14.763" height="15.674" fill="#e48d25"/>
	</g>
</g>
<g>
	<g>
		<rect x="39.275" y="99.422" width="14.763" height="15.674" fill="#e48d25"/>
	</g>
</g>
<g>
	<g>
		<rect x="24.249" y="21.362" width="14.763" height="15.674" fill="#e48d25"/>
	</g>
</g>
<g>
	<g>
		<rect x="77.347" y="155.304" width="14.763" height="15.674" fill="#e48d25"/>
	</g>
</g>
<g>
	<g>
		<rect x="127.107" y="63.342" width="14.763" height="15.674" fill="#e48d25"/>
	</g>
</g>
<g>
	<g>
		<polygon points="138.158,442.84 138.158,472.615 121.715,472.615 121.715,487.378 152.921,487.378 152.921,442.84   " fill="#e48d25"/>
	</g>
</g>
<g>
	<g>
		<rect x="91.795" y="472.614" width="14.189" height="14.763" fill="#e48d25"/>
	</g>
</g>
<g>
</g>
<g>
</g>
<g>
</g>
<g>
</g>
<g>
</g>
<g>
</g>
<g>
</g>
<g>
</g>
<g>
</g>
<g>
</g>
<g>
</g>
<g>
</g>
<g>
</g>
<g>
</g>
<g>
</g>
</svg>
