<?xml version="1.0" encoding="iso-8859-1"?>
<!-- Generator: Adobe Illustrator 19.0.0, SVG Export Plug-In . SVG Version: 6.00 Build 0)  -->
<svg xmlns="http://www.w3.org/2000/svg" xmlns:xlink="http://www.w3.org/1999/xlink" version="1.1" id="Layer_1" x="0px" y="0px" viewBox="0 0 511.999 511.999" style="enable-background:new 0 0 511.999 511.999;" xml:space="preserve" width="512px" height="512px">
<g>
	<g>
		<path d="M256,113.845c-30.476,0-55.27,24.794-55.27,55.27c0,30.476,24.794,55.27,55.27,55.27c30.476,0,55.27-24.794,55.27-55.27    C311.271,138.639,286.477,113.845,256,113.845z M255.999,208.628c-21.788,0-39.513-17.725-39.513-39.513    c0-21.788,17.725-39.513,39.513-39.513c21.788,0,39.513,17.725,39.513,39.513C295.512,190.903,277.787,208.628,255.999,208.628z" fill="#e48d25"/>
	</g>
</g>
<g>
	<g>
		<path d="M255.999,137.54c-17.41,0-31.575,14.164-31.575,31.575c0,17.41,14.164,31.575,31.575,31.575    c17.411-0.001,31.575-14.165,31.575-31.575C287.575,151.705,273.411,137.54,255.999,137.54z M256,184.933    c-8.722-0.001-15.817-7.096-15.817-15.818s7.095-15.818,15.818-15.818c8.721,0,15.818,7.095,15.818,15.818    C271.818,177.836,264.723,184.933,256,184.933z" fill="#e48d25"/>
	</g>
</g>
<g>
	<g>
		<rect x="247.594" y="231.837" width="16.808" height="15.758" fill="#e48d25"/>
	</g>
</g>
<g>
	<g>
		<path d="M466.935,210.936l-11.142,11.142l26.568,26.568H366.314c-1.548-23.578-10.52-45.826-25.762-63.879    c1.534-5.759,2.313-10.985,2.313-15.652c0-45.419-35.045-82.783-79.511-86.531V29.638l26.568,26.568l11.143-11.142L255.999,0    l-45.065,45.064l11.143,11.143l25.518-25.518v51.975c-43.968,4.242-78.461,41.389-78.461,86.452c0,4.667,0.779,9.893,2.313,15.651    c-15.242,18.054-24.214,40.302-25.762,63.879H29.638l26.568-26.568l-11.142-11.142L0,255.999l45.064,45.065l11.142-11.143    l-25.518-25.518h115.068c4.099,54.278,47.562,97.74,101.839,101.839v115.069l-25.517-25.518l-11.143,11.142l45.065,45.064    l45.064-45.064l-11.143-11.142l-26.568,26.568V366.31c54.766-3.615,98.765-47.279,102.89-101.907h115.07l-25.518,25.518    l11.142,11.143l45.064-45.065L466.935,210.936z M255.999,98.007c39.209,0,71.107,31.899,71.107,71.108    c0,30.597-46.834,93.034-71.107,122.122c-24.273-29.088-71.108-91.524-71.108-122.122    C184.893,129.906,216.791,98.007,255.999,98.007z M327.107,255.999c0,39.209-31.899,71.107-71.107,71.107    s-71.108-31.899-71.108-71.107c0-9.837,2.044-19.542,5.942-28.47c5.409,9.187,11.815,19.059,19.225,29.611    c19.756,28.129,39.183,50.49,40,51.428l5.941,6.818l5.941-6.818c0.817-0.938,20.244-23.297,40-51.428    c7.416-10.559,13.825-20.437,19.236-29.629C325.077,236.409,327.107,246.042,327.107,255.999z M255.999,350.803    c-52.274,0-94.803-42.529-94.803-94.803c0-19.351,5.828-37.896,16.596-53.569c1.631,3.723,3.491,7.604,5.581,11.646l-2.616-1.513    c-7.605,13.147-11.624,28.167-11.624,43.435c0,47.898,38.968,86.864,86.865,86.864s86.864-38.968,86.864-86.864    c0-16.119-4.351-31.547-12.626-45.104c1.447-2.908,2.769-5.729,3.968-8.465c10.769,15.673,16.596,34.218,16.596,53.569    C350.803,308.275,308.275,350.803,255.999,350.803z" fill="#e48d25"/>
	</g>
</g>
<g>
</g>
<g>
</g>
<g>
</g>
<g>
</g>
<g>
</g>
<g>
</g>
<g>
</g>
<g>
</g>
<g>
</g>
<g>
</g>
<g>
</g>
<g>
</g>
<g>
</g>
<g>
</g>
<g>
</g>
</svg>
