<?xml version="1.0" encoding="iso-8859-1"?>
<!-- Generator: Adobe Illustrator 19.0.0, SVG Export Plug-In . SVG Version: 6.00 Build 0)  -->
<svg xmlns="http://www.w3.org/2000/svg" xmlns:xlink="http://www.w3.org/1999/xlink" version="1.1" id="Capa_1" x="0px" y="0px" viewBox="0 0 512 512" style="enable-background:new 0 0 512 512;" xml:space="preserve" width="512px" height="512px">
<g>
	<g>
		<path d="M66.824,0v512L256,438.431L445.176,512V0H66.824z M430.042,489.876L256,422.193L81.958,489.876V15.134h348.084V489.876z" fill="#e48d25"/>
	</g>
</g>
<g>
	<g>
		<rect x="97.09" y="419.214" width="15.134" height="14.952" fill="#e48d25"/>
	</g>
</g>
<g>
	<g>
		<rect x="97.09" y="389.309" width="15.134" height="14.953" fill="#e48d25"/>
	</g>
</g>
<g>
	<g>
		<rect x="97.09" y="359.404" width="15.134" height="14.952" fill="#e48d25"/>
	</g>
</g>
<g>
	<g>
		<rect x="97.09" y="329.499" width="15.134" height="14.953" fill="#e48d25"/>
	</g>
</g>
<g>
	<g>
		<rect x="97.09" y="299.594" width="15.134" height="14.952" fill="#e48d25"/>
	</g>
</g>
<g>
	<g>
		<rect x="97.09" y="269.689" width="15.134" height="14.951" fill="#e48d25"/>
	</g>
</g>
<g>
	<g>
		<rect x="97.09" y="239.784" width="15.134" height="14.952" fill="#e48d25"/>
	</g>
</g>
<g>
	<g>
		<rect x="97.09" y="209.879" width="15.134" height="14.952" fill="#e48d25"/>
	</g>
</g>
<g>
	<g>
		<rect x="97.09" y="179.974" width="15.134" height="14.951" fill="#e48d25"/>
	</g>
</g>
<g>
	<g>
		<rect x="97.09" y="150.07" width="15.134" height="14.952" fill="#e48d25"/>
	</g>
</g>
<g>
	<g>
		<rect x="97.09" y="120.165" width="15.134" height="14.952" fill="#e48d25"/>
	</g>
</g>
<g>
	<g>
		<rect x="97.09" y="90.26" width="15.134" height="14.951" fill="#e48d25"/>
	</g>
</g>
<g>
	<g>
		<rect x="97.09" y="60.355" width="15.134" height="14.952" fill="#e48d25"/>
	</g>
</g>
<g>
	<g>
		<rect x="97.09" y="30.268" width="15.134" height="15.134" fill="#e48d25"/>
	</g>
</g>
<g>
	<g>
		<rect x="369.504" y="30.268" width="15.134" height="15.134" fill="#e48d25"/>
	</g>
</g>
<g>
	<g>
		<rect x="339.235" y="30.268" width="15.134" height="15.134" fill="#e48d25"/>
	</g>
</g>
<g>
	<g>
		<rect x="308.967" y="30.268" width="15.134" height="15.134" fill="#e48d25"/>
	</g>
</g>
<g>
	<g>
		<rect x="278.699" y="30.268" width="15.134" height="15.134" fill="#e48d25"/>
	</g>
</g>
<g>
	<g>
		<rect x="248.431" y="30.268" width="15.134" height="15.134" fill="#e48d25"/>
	</g>
</g>
<g>
	<g>
		<rect x="218.163" y="30.268" width="15.134" height="15.134" fill="#e48d25"/>
	</g>
</g>
<g>
	<g>
		<rect x="187.895" y="30.268" width="15.134" height="15.134" fill="#e48d25"/>
	</g>
</g>
<g>
	<g>
		<rect x="157.626" y="30.268" width="15.134" height="15.134" fill="#e48d25"/>
	</g>
</g>
<g>
	<g>
		<rect x="127.358" y="30.268" width="15.134" height="15.134" fill="#e48d25"/>
	</g>
</g>
<g>
	<g>
		<rect x="399.772" y="30.268" width="15.134" height="15.134" fill="#e48d25"/>
	</g>
</g>
<g>
	<g>
		<rect x="399.772" y="419.214" width="15.134" height="14.952" fill="#e48d25"/>
	</g>
</g>
<g>
	<g>
		<rect x="399.772" y="389.309" width="15.134" height="14.951" fill="#e48d25"/>
	</g>
</g>
<g>
	<g>
		<rect x="399.772" y="359.404" width="15.134" height="14.952" fill="#e48d25"/>
	</g>
</g>
<g>
	<g>
		<rect x="399.772" y="329.499" width="15.134" height="14.953" fill="#e48d25"/>
	</g>
</g>
<g>
	<g>
		<rect x="399.772" y="299.594" width="15.134" height="14.951" fill="#e48d25"/>
	</g>
</g>
<g>
	<g>
		<rect x="399.772" y="269.689" width="15.134" height="14.953" fill="#e48d25"/>
	</g>
</g>
<g>
	<g>
		<rect x="399.772" y="239.784" width="15.134" height="14.952" fill="#e48d25"/>
	</g>
</g>
<g>
	<g>
		<rect x="399.772" y="209.879" width="15.134" height="14.951" fill="#e48d25"/>
	</g>
</g>
<g>
	<g>
		<rect x="399.772" y="179.974" width="15.134" height="14.952" fill="#e48d25"/>
	</g>
</g>
<g>
	<g>
		<rect x="399.772" y="150.07" width="15.134" height="14.952" fill="#e48d25"/>
	</g>
</g>
<g>
	<g>
		<rect x="399.772" y="120.165" width="15.134" height="14.952" fill="#e48d25"/>
	</g>
</g>
<g>
	<g>
		<rect x="399.772" y="90.26" width="15.134" height="14.952" fill="#e48d25"/>
	</g>
</g>
<g>
	<g>
		<rect x="399.772" y="60.355" width="15.134" height="14.952" fill="#e48d25"/>
	</g>
</g>
<g>
	<g>
		
			<rect x="289.659" y="406.507" transform="matrix(0.3624 -0.932 0.932 0.3624 -196.2338 540.9073)" width="15.134" height="14.743" fill="#e48d25"/>
	</g>
</g>
<g>
	<g>
		
			<rect x="262.185" y="395.796" transform="matrix(0.3625 -0.932 0.932 0.3625 -203.7789 508.4277)" width="15.134" height="14.745" fill="#e48d25"/>
	</g>
</g>
<g>
	<g>
		
			<rect x="207.388" y="406.288" transform="matrix(0.932 -0.3625 0.3625 0.932 -135.4146 105.9986)" width="14.744" height="15.134" fill="#e48d25"/>
	</g>
</g>
<g>
	<g>
		
			<rect x="179.918" y="417.001" transform="matrix(0.932 -0.3624 0.3624 0.932 -141.1342 96.7372)" width="14.744" height="15.134" fill="#e48d25"/>
	</g>
</g>
<g>
	<g>
		
			<rect x="234.892" y="395.635" transform="matrix(0.932 -0.3624 0.3624 0.932 -129.6552 115.2093)" width="14.744" height="15.134" fill="#e48d25"/>
	</g>
</g>
<g>
	<g>
		<rect x="124.947" y="438.352" transform="matrix(0.932 -0.3624 0.3624 0.932 -152.6103 78.268)" width="14.744" height="15.134" fill="#e48d25"/>
	</g>
</g>
<g>
	<g>
		
			<rect x="344.629" y="427.883" transform="matrix(0.3624 -0.932 0.932 0.3624 -181.1092 605.7677)" width="15.134" height="14.744" fill="#e48d25"/>
	</g>
</g>
<g>
	<g>
		
			<rect x="372.136" y="438.552" transform="matrix(0.3625 -0.932 0.932 0.3625 -173.5324 638.1554)" width="15.134" height="14.745" fill="#e48d25"/>
	</g>
</g>
<g>
	<g>
		
			<rect x="317.167" y="417.171" transform="matrix(0.3625 -0.932 0.932 0.3625 -188.6483 573.2972)" width="15.134" height="14.745" fill="#e48d25"/>
	</g>
</g>
<g>
	<g>
		
			<rect x="152.443" y="427.663" transform="matrix(0.932 -0.3624 0.3624 0.932 -146.8659 87.5045)" width="14.743" height="15.134" fill="#e48d25"/>
	</g>
</g>
<g>
	<g>
		<rect x="97.09" y="447.646" width="15.134" height="14.952" fill="#e48d25"/>
	</g>
</g>
<g>
	<g>
		<rect x="399.772" y="447.646" width="15.134" height="14.952" fill="#e48d25"/>
	</g>
</g>
<g>
	<g>
		<path d="M348.615,199.082l-63.523-9.23l-28.409-57.561l-28.409,57.561l-63.523,9.23l45.966,44.806l-10.851,63.266l56.816-29.87    l56.816,29.87l-10.851-63.266L348.615,199.082z M256.683,260.186l-36.717,19.304l7.012-40.884l-29.704-28.954l41.051-5.965    l18.359-37.199l18.359,37.199l41.051,5.965l-29.704,28.954l7.012,40.884L256.683,260.186z" fill="#e48d25"/>
	</g>
</g>
<g>
</g>
<g>
</g>
<g>
</g>
<g>
</g>
<g>
</g>
<g>
</g>
<g>
</g>
<g>
</g>
<g>
</g>
<g>
</g>
<g>
</g>
<g>
</g>
<g>
</g>
<g>
</g>
<g>
</g>
</svg>
