<?xml version="1.0" encoding="iso-8859-1"?>
<!-- Generator: Adobe Illustrator 19.0.0, SVG Export Plug-In . SVG Version: 6.00 Build 0)  -->
<svg xmlns="http://www.w3.org/2000/svg" xmlns:xlink="http://www.w3.org/1999/xlink" version="1.1" id="Layer_1" x="0px" y="0px" viewBox="0 0 512 512" style="enable-background:new 0 0 512 512;" xml:space="preserve" width="512px" height="512px">
<g>
	<g>
		<path d="M428.265,0H203.684v136.356l-0.156,0.037c-31.944,0.231-61.892,12.6-84.417,34.89    c-22.813,22.576-35.376,52.747-35.376,84.958c0,63.92,109.586,238.071,114.251,245.453L204.498,512l6.497-10.315    c4.666-7.408,114.269-182.154,114.269-246.069c0-13.531-2.215-26.679-6.594-39.239h109.595V0z M203.686,214.39v37.305    l35.138-18.457c0.676,1.061,1.309,2.149,1.883,3.265c0.036,0.07,0.07,0.142,0.106,0.212c0.269,0.531,0.526,1.069,0.772,1.61    c0.052,0.117,0.105,0.234,0.157,0.351c0.227,0.513,0.442,1.03,0.647,1.552c0.047,0.121,0.096,0.241,0.143,0.362    c0.216,0.565,0.419,1.135,0.611,1.71c0.023,0.068,0.047,0.134,0.07,0.202c0.422,1.292,0.778,2.607,1.07,3.939    c0.037,0.169,0.069,0.339,0.103,0.509c0.098,0.48,0.191,0.961,0.272,1.445c0.037,0.223,0.071,0.445,0.105,0.668    c0.067,0.441,0.126,0.884,0.178,1.328c0.028,0.235,0.055,0.47,0.079,0.705c0.046,0.461,0.081,0.924,0.112,1.387    c0.013,0.208,0.032,0.416,0.042,0.625c0.033,0.669,0.053,1.338,0.053,2.01c0,22.471-18.247,40.753-40.719,40.753    s-40.684-18.282-40.684-40.753C163.822,232.988,181.599,214.936,203.686,214.39z M203.684,199.008    c-30.302,0.554-55.246,25.502-55.246,56.108c0,30.953,25.045,56.135,55.999,56.135c30.953,0,56.139-25.182,56.139-56.135    c0-0.926-0.029-1.849-0.074-2.77c-0.014-0.284-0.038-0.566-0.056-0.849c-0.042-0.645-0.09-1.288-0.154-1.93    c-0.032-0.316-0.069-0.63-0.106-0.945c-0.073-0.625-0.156-1.248-0.249-1.868c-0.044-0.293-0.088-0.586-0.137-0.878    c-0.116-0.694-0.247-1.384-0.389-2.073c-0.042-0.204-0.079-0.409-0.124-0.613c-0.403-1.856-0.899-3.688-1.487-5.489    c-0.01-0.033-0.023-0.065-0.034-0.097c-0.281-0.857-0.586-1.706-0.909-2.549c-0.046-0.12-0.094-0.238-0.141-0.358    c-0.303-0.774-0.621-1.541-0.958-2.301c-0.05-0.113-0.101-0.227-0.151-0.339c-0.364-0.809-0.747-1.609-1.149-2.401    c-0.021-0.042-0.041-0.084-0.063-0.125c-0.601-1.174-1.245-2.328-1.93-3.459l7.869-4.132c5.971,9.996,9.11,21.326,9.11,33.177    c0,35.827-29.114,64.975-64.941,64.975c-35.827,0-64.907-29.147-64.907-64.975c0-35.484,28.666-64.397,64.086-64.948V199.008z     M254.293,396.302c-19.823,36.948-39.841,70.352-49.816,86.669c-9.978-16.272-29.981-49.549-49.787-86.365    c-45.931-85.377-55.572-123.454-55.572-140.364c0-28.072,10.943-54.36,30.814-74.024c19.662-19.458,45.829-30.246,73.752-30.436    v23.005c-43.631,0.556-79.468,36.367-79.468,80.331c0,44.309,35.912,80.357,80.221,80.357c44.309,0,80.361-36.048,80.361-80.357    c0-13.756-3.415-26.944-9.937-38.739h27.37c5.08,12.445,7.652,25.617,7.652,39.238    C309.882,272.528,300.238,310.663,254.293,396.302z M412.883,200.995h-145.75l-24.59,12.916c-0.224-0.207-0.437-0.424-0.664-0.627    l-1.646,1.84l-21.167,11.117V15.382h193.817V200.995z" fill="#e48d25"/>
	</g>
</g>
<g>
	<g>
		<rect x="389.296" y="103.574" width="17.433" height="15.382" fill="#e48d25"/>
	</g>
</g>
<g>
	<g>
		<rect x="366.735" y="128.186" width="39.994" height="15.382" fill="#e48d25"/>
	</g>
</g>
<g>
	<g>
		<rect x="342.123" y="151.772" width="64.606" height="15.382" fill="#e48d25"/>
	</g>
</g>
<g>
	<g>
		<path d="M354.803,67.23l-14.744,4.385c1.34,4.505,2.019,9.198,2.019,13.949c0,26.923-21.903,48.827-48.827,48.827    s-48.827-21.903-48.827-48.827c0-26.923,21.903-48.826,48.827-48.826c12.859,0,24.996,4.956,34.177,13.956l10.768-10.985    c-12.074-11.836-28.036-18.353-44.945-18.353c-35.405,0-64.209,28.804-64.209,64.209c0,35.405,28.804,64.209,64.209,64.209    c35.405,0,64.209-28.804,64.209-64.209C357.46,79.327,356.565,73.158,354.803,67.23z" fill="#e48d25"/>
	</g>
</g>
<g>
	<g>
		<rect x="317.512" y="175.358" width="16.408" height="15.382" fill="#e48d25"/>
	</g>
</g>
<g>
	<g>
		<rect x="342.123" y="175.358" width="16.408" height="15.382" fill="#e48d25"/>
	</g>
</g>
<g>
	<g>
		<rect x="366.735" y="175.358" width="14.357" height="15.382" fill="#e48d25"/>
	</g>
</g>
<g>
	<g>
		<rect x="389.296" y="175.358" width="17.433" height="15.382" fill="#e48d25"/>
	</g>
</g>
<g>
	<g>
		<polygon points="360.479,23.607 293.251,90.835 274.468,72.051 263.591,82.927 293.251,112.588 371.355,34.483   " fill="#e48d25"/>
	</g>
</g>
<g>
</g>
<g>
</g>
<g>
</g>
<g>
</g>
<g>
</g>
<g>
</g>
<g>
</g>
<g>
</g>
<g>
</g>
<g>
</g>
<g>
</g>
<g>
</g>
<g>
</g>
<g>
</g>
<g>
</g>
</svg>
