<?xml version="1.0" encoding="iso-8859-1"?>
<!-- Generator: Adobe Illustrator 19.0.0, SVG Export Plug-In . SVG Version: 6.00 Build 0)  -->
<svg xmlns="http://www.w3.org/2000/svg" xmlns:xlink="http://www.w3.org/1999/xlink" version="1.1" id="Layer_1" x="0px" y="0px" viewBox="0 0 512 512" style="enable-background:new 0 0 512 512;" xml:space="preserve" width="512px" height="512px">
<g>
	<g>
		<rect x="272.718" y="79.412" width="15.673" height="144.196" fill="#e48d25"/>
	</g>
</g>
<g>
	<g>
		<path d="M376.55,31.857C376.543,14.289,362.254,0,344.69,0H134.429l26.005,102.922l-26.005,102.922h105.897v-15.673h-85.77    l22.044-87.249l-22.044-87.249H344.69c8.926,0,16.187,7.265,16.187,16.196c0,8.931-7.261,16.196-16.187,16.196h-96.004v206.89    h96.004c17.93,0,32.518-14.171,32.518-31.617L376.55,31.857z M344.69,239.282h-80.331V63.739h80.331    c5.944,0,11.514-1.636,16.281-4.484l0.564,164.111C361.535,231.993,353.82,239.282,344.69,239.282z" fill="#e48d25"/>
	</g>
</g>
<g>
	<g>
		<rect x="248.686" y="22.988" width="15.673" height="16.718" fill="#e48d25"/>
	</g>
</g>
<g>
	<g>
		<path d="M404.624,352.131H264.359v-88.816h-15.673v88.816H108.609L0,492.962V512h512v-19.014L404.624,352.131z M264.358,430.498    v-22.989c38.801,1.34,56.479,12.512,56.479,16.053c0.001,3.77-20.021,16.186-64.234,16.186c-44.212,0-64.234-12.417-64.234-16.186    c0-3.537,17.626-14.685,56.316-16.049v22.985H264.358z M17.198,496.327l99.117-128.522h132.371v24.039    c-17.104,0.6-33.04,3.137-45.522,7.297c-13.84,4.613-20.757,10.315-23.974,15.685h-26.634v15.674h25.654    c7.174,15.755,38.791,23.659,70.476,24.782v24.328h15.673v-24.321c17.167-0.59,33.163-3.13,45.685-7.304    c15.4-5.134,22.228-11.615,24.925-17.485h26.565v-15.674h-27.483c-8.702-14.584-39.185-21.927-69.693-22.987v-24.034h132.505    l97.974,128.522H17.198z" fill="#e48d25"/>
	</g>
</g>
<g>
	<g>
		<rect x="369.894" y="463.935" width="13.584" height="15.673" fill="#e48d25"/>
	</g>
</g>
<g>
	<g>
		<rect x="391.837" y="463.935" width="15.673" height="15.673" fill="#e48d25"/>
	</g>
</g>
<g>
	<g>
		<rect x="416.914" y="463.935" width="15.673" height="15.673" fill="#e48d25"/>
	</g>
</g>
<g>
	<g>
		<rect x="81.502" y="463.935" width="15.673" height="15.673" fill="#e48d25"/>
	</g>
</g>
<g>
	<g>
		<rect x="105.535" y="463.935" width="15.673" height="15.673" fill="#e48d25"/>
	</g>
</g>
<g>
	<g>
		<rect x="129.567" y="463.935" width="14.629" height="15.673" fill="#e48d25"/>
	</g>
</g>
<g>
</g>
<g>
</g>
<g>
</g>
<g>
</g>
<g>
</g>
<g>
</g>
<g>
</g>
<g>
</g>
<g>
</g>
<g>
</g>
<g>
</g>
<g>
</g>
<g>
</g>
<g>
</g>
<g>
</g>
</svg>
